# xmcd
#
# Track frame offsets: 
#        180
#        14847
#        26279
#        37456
#        48462
#        64440
#        79599
#        92353
#        104575
#        116277
#        127484
#        139048
#
# Disc length: 2017 seconds
#
# Revision: 0
# Processed by: cddbd v1.5.1PL0 Copyright (c) Steve Scherf et al.
# Submitted via: ExactAudioCopy v0.95a5
#
DISCID=ac07df0c
DTITLE=Various Artist - All Time Country Classics
DYEAR=1998
DGENRE=Country
TTITLE0=God Bless The USA-Lee Greenwood
TTITLE1=Heaven's Just A Sin Away- The Kendalls
TTITLE2=Hello Darlin'- Conway Twitty
TTITLE3=King of The Road- Roger Miller
TTITLE4=Looking For Love- Johnny Lee
TTITLE5=Mama Don't Let Your Babies Grow Up To Be Cowboys- Ed Bruce
TTITLE6=Still- Bill Anderson
TTITLE7=Workin' Man Blues- Merle Hagard
TTITLE8=If You Leave Me Tonight, I'll Cry- Jerry Wallace
TTITLE9=Let Me Be The One- Hank Locklin
TTITLE10=Walkin' After Midnight- Patsy Cline
TTITLE11=Wishful Thinking- Wynn Stewart and Jerry Fuller
EXTD=
EXTT0=
EXTT1=
EXTT2=
EXTT3=
EXTT4=
EXTT5=
EXTT6=
EXTT7=
EXTT8=
EXTT9=
EXTT10=
EXTT11=
PLAYORDER=
